<svg xmlns="http://www.w3.org/2000/svg" xmlns:xlink="http://www.w3.org/1999/xlink" viewBox="0,0,256,256" width="26px" height="26px" fill-rule="nonzero"><g fill="#de1414" fill-rule="nonzero" stroke="none" stroke-width="1" stroke-linecap="butt" stroke-linejoin="miter" stroke-miterlimit="10" stroke-dasharray="" stroke-dashoffset="0" font-family="none" font-weight="none" font-size="none" text-anchor="none" style="mix-blend-mode: normal"><g transform="scale(9.84615,9.84615)"><path d="M11.5,-0.03125c-1.95703,0 -3.53125,1.625 -3.53125,3.59375v0.4375h-3.96875c-0.55078,0 -1,0.44922 -1,1v1h-1v2h2v15c0,1.64453 1.35547,3 3,3h12c1.64453,0 3,-1.35547 3,-3v-15h2v-2h-1v-1c0,-0.55078 -0.44922,-1 -1,-1h-3.96875v-0.4375c0,-1.96875 -1.57422,-3.59375 -3.53125,-3.59375zM11.5,2.03125h3c0.80469,0 1.46875,0.65625 1.46875,1.53125v0.4375h-5.9375v-0.4375c0,-0.875 0.66406,-1.53125 1.46875,-1.53125zM6,8h5.125c0.125,0.01172 0.24609,0.03125 0.375,0.03125h3c0.12891,0 0.25,-0.01953 0.375,-0.03125h5.125v15c0,0.5625 -0.4375,1 -1,1h-12c-0.5625,0 -1,-0.4375 -1,-1zM8,10v12h2v-12zM12,10v12h2v-12zM16,10v12h2v-12z"></path></g></g></svg>