<svg width="14" height="14" viewBox="0 0 14 14" fill="none" xmlns="http://www.w3.org/2000/svg">
<path fill-rule="evenodd" clip-rule="evenodd" d="M0.398862 0.398862C0.730807 0.0669159 1.269 0.0669159 1.60094 0.398862L6.9999 5.79782L12.3989 0.398862C12.7308 0.0669159 13.269 0.0669159 13.6009 0.398862C13.9329 0.730807 13.9329 1.269 13.6009 1.60094L8.20198 6.9999L13.6009 12.3989C13.9329 12.7308 13.9329 13.269 13.6009 13.6009C13.269 13.9329 12.7308 13.9329 12.3989 13.6009L6.9999 8.20198L1.60094 13.6009C1.269 13.9329 0.730807 13.9329 0.398862 13.6009C0.0669159 13.269 0.0669159 12.7308 0.398862 12.3989L5.79782 6.9999L0.398862 1.60094C0.0669159 1.269 0.0669159 0.730807 0.398862 0.398862Z" fill="#1F2937"/>
</svg>
