<svg id="logo" xmlns="http://www.w3.org/2000/svg" width="210" height="35.243" viewBox="0 0 210 35.243">
              <rect id="logo_background" data-name="logo background" width="210" height="35.243" transform="translate(0)" fill="rgba(0,0,0,0)"></rect>
              <g id="Group_21" data-name="Group 21" transform="translate(0 0.243)">
                <path class="logo__text" id="Fill_1" data-name="Fill 1" d="M7.434,6.569a6.789,6.789,0,0,0-2.913.621,5.788,5.788,0,0,0-1.606,1.12V0H0V20.58H2.914V13.607a4.557,4.557,0,0,1,1.042-3.189A3.642,3.642,0,0,1,6.8,9.3c1.943,0,2.847,1.164,2.847,3.664v7.631h2.914v-8.25a6.1,6.1,0,0,0-1.37-4.311,4.937,4.937,0,0,0-3.76-1.464" transform="translate(43.023 7.094)" fill="#fff"></path>
                <path class="logo__text" id="Fill_3" data-name="Fill 3" d="M6.894,14.183a7.138,7.138,0,0,1-2.725-.521A6.624,6.624,0,0,1,1.976,12.22,6.59,6.59,0,0,1,.526,9.964,7.772,7.772,0,0,1,0,7.092a7.859,7.859,0,0,1,.512-2.85,6.776,6.776,0,0,1,1.4-2.253A6.413,6.413,0,0,1,4.024.53,6.57,6.57,0,0,1,6.644,0a6.458,6.458,0,0,1,3.388.9,6.058,6.058,0,0,1,2.288,2.47,7.647,7.647,0,0,1,.8,3.516,5.891,5.891,0,0,1-.071.955l-.051.3H3.026a4.087,4.087,0,0,0,1.232,2.306,3.826,3.826,0,0,0,2.715,1.006,4.193,4.193,0,0,0,1.939-.441A4.655,4.655,0,0,0,10.39,9.817l.236-.289L12.7,11.3l-.212.274a6.651,6.651,0,0,1-2.359,1.906A7.284,7.284,0,0,1,6.894,14.183ZM6.762,2.73a3.579,3.579,0,0,0-2.441.883A3.913,3.913,0,0,0,3.111,5.595h7.024a4.015,4.015,0,0,0-1.08-1.99A3.132,3.132,0,0,0,6.762,2.73Z" transform="translate(57.964 13.663)" fill="#fff"></path>
                <path class="logo__text" id="Fill_5" data-name="Fill 5" d="M0,20.58H2.914V0H0Z" transform="translate(73.853 7.094)" fill="#fff"></path>
                <path class="logo__text" id="Fill_7" data-name="Fill 7" d="M1.925,0A1.873,1.873,0,0,0,.557.554,1.843,1.843,0,0,0,0,1.9,1.825,1.825,0,0,0,.557,3.242,1.87,1.87,0,0,0,1.925,3.8a1.857,1.857,0,0,0,1.351-.553A1.822,1.822,0,0,0,3.836,1.9,1.839,1.839,0,0,0,3.275.553,1.859,1.859,0,0,0,1.925,0" transform="translate(80.132 8.319)" fill="#fff"></path>
                <path class="logo__text" id="Fill_8" data-name="Fill 8" d="M0,13.854H2.914V0H0Z" transform="translate(80.579 13.821)" fill="#fff"></path>
                <path class="logo__text" id="Fill_9" data-name="Fill 9" d="M9.281,6.73a6.231,6.231,0,0,1-.3,1.967,4.2,4.2,0,0,1-.778,1.438,3.452,3.452,0,0,1-1.12.859,3.078,3.078,0,0,1-1.337.3,2.582,2.582,0,0,1-2.128-.823A4.647,4.647,0,0,1,2.914,7.56V0H0V8.184a6.141,6.141,0,0,0,1.4,4.358,5.123,5.123,0,0,0,3.892,1.483,5.441,5.441,0,0,0,2.58-.645,5.57,5.57,0,0,0,1.412-1.074v1.548H12.2V0H9.281Z" transform="translate(86.845 13.821)" fill="#fff"></path>
                <path class="logo__text" id="Fill_10" data-name="Fill 10" d="M15.969,0a6.079,6.079,0,0,0-2.9.708,5.867,5.867,0,0,0-1.838,1.54A4.422,4.422,0,0,0,6.991,0,5.45,5.45,0,0,0,4.374.669,5.87,5.87,0,0,0,2.914,1.788V.158H0V14.012H2.914V7.131A4.931,4.931,0,0,1,3.908,3.9,3.016,3.016,0,0,1,6.347,2.73,2.407,2.407,0,0,1,8.391,3.6,4.834,4.834,0,0,1,9.1,6.526v7.486h2.915V7.131a5.023,5.023,0,0,1,.97-3.233A2.872,2.872,0,0,1,15.325,2.73a2.337,2.337,0,0,1,2.026.853,5.1,5.1,0,0,1,.67,2.969v7.46h2.915V5.959A6.8,6.8,0,0,0,19.689,1.5,4.626,4.626,0,0,0,15.969,0" transform="translate(102.352 13.663)" fill="#fff"></path>
                <path class="logo__text" id="Fill_11" data-name="Fill 11" d="M7.434,6.569a6.789,6.789,0,0,0-2.913.621,5.784,5.784,0,0,0-1.606,1.12V0H0V20.58H2.914V13.607a4.558,4.558,0,0,1,1.042-3.189A3.643,3.643,0,0,1,6.8,9.3c1.943,0,2.847,1.164,2.847,3.664v7.631h2.914v-8.25a6.1,6.1,0,0,0-1.369-4.311,4.937,4.937,0,0,0-3.76-1.464" transform="translate(133.867 7.094)" fill="#fff"></path>
                <path class="logo__text" id="Fill_12" data-name="Fill 12" d="M6.894,14.183a7.138,7.138,0,0,1-2.725-.521A6.621,6.621,0,0,1,1.976,12.22,6.58,6.58,0,0,1,.526,9.964,7.772,7.772,0,0,1,0,7.092a7.859,7.859,0,0,1,.512-2.85,6.783,6.783,0,0,1,1.4-2.253A6.409,6.409,0,0,1,4.024.53,6.57,6.57,0,0,1,6.644,0a6.457,6.457,0,0,1,3.387.9,6.057,6.057,0,0,1,2.288,2.47,7.647,7.647,0,0,1,.8,3.516,5.9,5.9,0,0,1-.071.955L13,8.141H3.026a4.085,4.085,0,0,0,1.232,2.306,3.826,3.826,0,0,0,2.715,1.006,4.193,4.193,0,0,0,1.939-.441,4.648,4.648,0,0,0,1.477-1.195l.236-.289L12.7,11.3l-.213.274a6.648,6.648,0,0,1-2.359,1.906A7.284,7.284,0,0,1,6.894,14.183ZM6.762,2.73a3.578,3.578,0,0,0-2.44.883A3.912,3.912,0,0,0,3.111,5.595h7.024a4.014,4.014,0,0,0-1.08-1.99A3.131,3.131,0,0,0,6.762,2.73Z" transform="translate(148.808 13.663)" fill="#fff"></path>
                <path class="logo__text" id="Fill_13" data-name="Fill 13" d="M6.809,14.183a7.071,7.071,0,0,1-2.667-.507A6.546,6.546,0,0,1,1.973,12.26,6.514,6.514,0,0,1,.527,10.031,7.659,7.659,0,0,1,0,7.171,7.7,7.7,0,0,1,.866,3.524,6.55,6.55,0,0,1,3.3.941,6.68,6.68,0,0,1,6.8,0a6.3,6.3,0,0,1,2.67.574,5.753,5.753,0,0,1,1.513,1.021V.158h2.914V14.012H11.071V12.489a5.971,5.971,0,0,1-1.489,1.062A6.107,6.107,0,0,1,6.809,14.183ZM7.045,2.73A3.824,3.824,0,0,0,4.135,3.947,4.457,4.457,0,0,0,2.967,7.184a4.292,4.292,0,0,0,1.124,3.075,3.786,3.786,0,0,0,2.928,1.194,3.968,3.968,0,0,0,1.542-.308,3.9,3.9,0,0,0,2.169-2.209,4.637,4.637,0,0,0,.328-1.752,4.934,4.934,0,0,0-.525-2.269,4.044,4.044,0,0,0-1.442-1.6A3.755,3.755,0,0,0,7.045,2.73Z" transform="translate(163.71 13.663)" fill="#fff"></path>
                <path class="logo__text" id="Fill_14" data-name="Fill 14" d="M0,20.58H2.914V0H0Z" transform="translate(181.086 7.094)" fill="#fff"></path>
                <path class="logo__text" id="Fill_15" data-name="Fill 15" d="M7.858,15.386a4.143,4.143,0,0,1-2.03.623,1.023,1.023,0,0,1-.943-.39,3.057,3.057,0,0,1-.3-1.6V7.392H8.931V4.768H4.586V0L1.672.316V4.768H0V7.392H1.672v6.955c0,2.028.655,4.445,3.774,4.445a6.72,6.72,0,0,0,1.888-.232A6.772,6.772,0,0,0,8.8,17.927l.25-.145-.8-2.623Z" transform="translate(186.246 9.054)" fill="#fff"></path>
                <path class="logo__text" id="Fill_16" data-name="Fill 16" d="M11.194,8.033a4.937,4.937,0,0,0-3.76-1.464,6.794,6.794,0,0,0-2.913.62,5.775,5.775,0,0,0-1.606,1.12V0H0V20.58H2.914V13.608a4.557,4.557,0,0,1,1.042-3.189A3.643,3.643,0,0,1,6.8,9.3c1.943,0,2.847,1.164,2.847,3.664v7.631h2.914v-8.25a6.1,6.1,0,0,0-1.37-4.311" transform="translate(197.423 7.094)" fill="#fff"></path>
                <path id="Fill_17" data-name="Fill 17" d="M0,7.017,7.017,0h6.976V13.953H6.812V6.976Z" transform="translate(13.944 0)" fill="#fff"></path>
                <path id="Fill_18" data-name="Fill 18" d="M6.935,0l7.017,7.017v6.976H0V6.812H6.976Z" transform="translate(21 13.948)" fill="#fff"></path>
                <path id="Fill_19" data-name="Fill 19" d="M13.994,6.935,6.976,13.953H0V0H7.182V6.976Z" transform="translate(7.017 20.987)" fill="#fff"></path>
                <path id="Fill_20" data-name="Fill 20" d="M7.017,13.994,0,6.976V0H13.953V7.182H6.976Z" transform="translate(0 7.009)" fill="#fff"></path>
              </g>
</svg>